<svg xmlns="http://www.w3.org/2000/svg" width="980" height="606" viewBox="0 0 980 606" role="img" aria-label="PrimeVul paired benchmark results">
<rect width="100%" height="100%" fill="#f8fafc"/>
<text x="32" y="38" fill="#0f172a" font-family="Segoe UI, Arial, sans-serif" font-size="24" font-weight="700">PrimeVul Paired Benchmark: Patch/Diff Reasoning Wins</text>
<text x="32" y="66" fill="#475569" font-family="Segoe UI, Arial, sans-serif" font-size="14">Balanced accuracy, generated from reports/PRIMEVUL_MAIN_RESULTS.json</text>
<line x1="570.0" y1="74" x2="570.0" y2="548" stroke="#e2e8f0" stroke-width="1"/>
<text x="570.0" y="570" text-anchor="middle" fill="#64748b" font-family="Segoe UI, Arial, sans-serif" font-size="12">0.5</text>
<line x1="626.0" y1="74" x2="626.0" y2="548" stroke="#e2e8f0" stroke-width="1"/>
<text x="626.0" y="570" text-anchor="middle" fill="#64748b" font-family="Segoe UI, Arial, sans-serif" font-size="12">0.6</text>
<line x1="682.0" y1="74" x2="682.0" y2="548" stroke="#e2e8f0" stroke-width="1"/>
<text x="682.0" y="570" text-anchor="middle" fill="#64748b" font-family="Segoe UI, Arial, sans-serif" font-size="12">0.7</text>
<line x1="738.0" y1="74" x2="738.0" y2="548" stroke="#e2e8f0" stroke-width="1"/>
<text x="738.0" y="570" text-anchor="middle" fill="#64748b" font-family="Segoe UI, Arial, sans-serif" font-size="12">0.8</text>
<line x1="290" y1="548" x2="850" y2="548" stroke="#cbd5e1" stroke-width="1"/>
<text x="32" y="115" fill="#0f172a" font-family="Segoe UI, Arial, sans-serif" font-size="13">same-source detector on paired eval</text>
<rect x="290" y="100" width="277.8" height="22" rx="6" fill="#f97316"/>
<text x="575.8" y="116" fill="#0f172a" font-family="Segoe UI, Arial, sans-serif" font-size="13" font-weight="600">0.4961</text>
<text x="886" y="116" fill="#64748b" font-family="Segoe UI, Arial, sans-serif" font-size="12">fails paired specificity</text>
<text x="32" y="159" fill="#0f172a" font-family="Segoe UI, Arial, sans-serif" font-size="13">paired-trained snippet detector</text>
<rect x="290" y="144" width="284.0" height="22" rx="6" fill="#f97316"/>
<text x="582.0" y="160" fill="#0f172a" font-family="Segoe UI, Arial, sans-serif" font-size="13" font-weight="600">0.5072</text>
<text x="886" y="160" fill="#64748b" font-family="Segoe UI, Arial, sans-serif" font-size="12">near chance on paired snippets</text>
<text x="32" y="203" fill="#0f172a" font-family="Segoe UI, Arial, sans-serif" font-size="13">metadata-only control</text>
<rect x="290" y="188" width="281.2" height="22" rx="6" fill="#94a3b8"/>
<text x="579.2" y="204" fill="#0f172a" font-family="Segoe UI, Arial, sans-serif" font-size="13" font-weight="600">0.5022</text>
<text x="886" y="204" fill="#64748b" font-family="Segoe UI, Arial, sans-serif" font-size="12">negative control</text>
<text x="32" y="247" fill="#0f172a" font-family="Segoe UI, Arial, sans-serif" font-size="13">candidate-only control</text>
<rect x="290" y="232" width="284.4" height="22" rx="6" fill="#94a3b8"/>
<text x="582.4" y="248" fill="#0f172a" font-family="Segoe UI, Arial, sans-serif" font-size="13" font-weight="600">0.5078</text>
<text x="886" y="248" fill="#64748b" font-family="Segoe UI, Arial, sans-serif" font-size="12">negative control</text>
<text x="32" y="291" fill="#0f172a" font-family="Segoe UI, Arial, sans-serif" font-size="13">counterpart-only control</text>
<rect x="290" y="276" width="288.7" height="22" rx="6" fill="#94a3b8"/>
<text x="586.7" y="292" fill="#0f172a" font-family="Segoe UI, Arial, sans-serif" font-size="13" font-weight="600">0.5156</text>
<text x="886" y="292" fill="#64748b" font-family="Segoe UI, Arial, sans-serif" font-size="12">negative control</text>
<text x="32" y="335" fill="#0f172a" font-family="Segoe UI, Arial, sans-serif" font-size="13">pair-context detector</text>
<rect x="290" y="320" width="339.4" height="22" rx="6" fill="#2563eb"/>
<text x="637.4" y="336" fill="#0f172a" font-family="Segoe UI, Arial, sans-serif" font-size="13" font-weight="600">0.6061</text>
<text x="886" y="336" fill="#64748b" font-family="Segoe UI, Arial, sans-serif" font-size="12">explicit comparison helps</text>
<text x="32" y="379" fill="#0f172a" font-family="Segoe UI, Arial, sans-serif" font-size="13">candidate+diff detector</text>
<rect x="290" y="364" width="376.8" height="22" rx="6" fill="#2563eb"/>
<text x="674.8" y="380" fill="#0f172a" font-family="Segoe UI, Arial, sans-serif" font-size="13" font-weight="600">0.6728</text>
<text x="886" y="380" fill="#64748b" font-family="Segoe UI, Arial, sans-serif" font-size="12">extra context dilutes patch signal</text>
<text x="32" y="423" fill="#0f172a" font-family="Segoe UI, Arial, sans-serif" font-size="13">diff-only detector, dedup eval</text>
<rect x="290" y="408" width="456.8" height="22" rx="6" fill="#0f766e"/>
<text x="754.8" y="424" fill="#0f172a" font-family="Segoe UI, Arial, sans-serif" font-size="13" font-weight="600">0.8158</text>
<text x="886" y="424" fill="#64748b" font-family="Segoe UI, Arial, sans-serif" font-size="12">removes 8 exact/near-duplicate eval rows</text>
<text x="32" y="467" fill="#0f172a" font-family="Segoe UI, Arial, sans-serif" font-size="13">diff-only detector, seed7 dedup</text>
<rect x="290" y="452" width="469.4" height="22" rx="6" fill="#0f766e"/>
<text x="767.4" y="468" fill="#0f172a" font-family="Segoe UI, Arial, sans-serif" font-size="13" font-weight="600">0.8382</text>
<text x="886" y="468" fill="#64748b" font-family="Segoe UI, Arial, sans-serif" font-size="12">multi-seed stability</text>
<text x="32" y="511" fill="#0f172a" font-family="Segoe UI, Arial, sans-serif" font-size="13">diff-only detector, seed99 dedup</text>
<rect x="290" y="496" width="466.0" height="22" rx="6" fill="#0f766e"/>
<text x="764.0" y="512" fill="#0f172a" font-family="Segoe UI, Arial, sans-serif" font-size="13" font-weight="600">0.8321</text>
<text x="886" y="512" fill="#64748b" font-family="Segoe UI, Arial, sans-serif" font-size="12">multi-seed stability</text>
<rect x="32" y="568" width="14" height="14" rx="3" fill="#94a3b8"/>
<text x="52" y="579" fill="#475569" font-family="Segoe UI, Arial, sans-serif" font-size="12">negative controls</text>
<rect x="190" y="568" width="14" height="14" rx="3" fill="#2563eb"/>
<text x="210" y="579" fill="#475569" font-family="Segoe UI, Arial, sans-serif" font-size="12">comparison variants</text>
<rect x="360" y="568" width="14" height="14" rx="3" fill="#0f766e"/>
<text x="380" y="579" fill="#475569" font-family="Segoe UI, Arial, sans-serif" font-size="12">diff-only runs</text>
</svg>